<svg id="Layer_1" data-name="Layer 1" xmlns="http://www.w3.org/2000/svg" xmlns:xlink="http://www.w3.org/1999/xlink" viewBox="0 0 142.02 137.3"><defs><style>.cls-1{fill:#04435f;}.cls-2{clip-path:url(#clip-path);}.cls-3{fill:#ed1c24;}.cls-4{fill:#fff;}.cls-5{fill:#def2fd;}.cls-6{fill:#00b8de;}.cls-7{fill:#ee332d;}</style><clipPath id="clip-path"><rect class="cls-1" x="8.37" y="11.03" width="124.08" height="114.65" rx="12"/></clipPath></defs><rect class="cls-1" x="8.37" y="11.03" width="124.08" height="114.65" rx="12"/><g class="cls-2"><rect class="cls-3" x="4.19" y="92.01" width="132.45" height="46.86"/></g><path class="cls-4" d="M31.25,98.44h4c3.33,0,5.51,1.16,5.51,4.44s-2.09,4.6-5.53,4.6H32.43V114H31.25Zm1.18,8.08h2.84c2.8,0,4.33-.93,4.33-3.59s-1.66-3.51-4.33-3.51H32.43Z"/><path class="cls-4" d="M49.7,112.41a4.92,4.92,0,0,1-4,1.69c-2.15,0-3.73-1.18-3.73-3.36s1.93-3.39,4.64-3.39a12.19,12.19,0,0,1,3,.35v-2.09c0-1.8-1.15-2.44-2.84-2.44a5.7,5.7,0,0,0-3.6,1H42.8v-.91a8.22,8.22,0,0,1,4.11-1c2.35,0,3.9.87,3.9,3.27V114H50.5c-.64,0-.8-.2-.8-1.13Zm0-1.07V108.5a13.2,13.2,0,0,0-3-.36c-2,0-3.58.74-3.58,2.51s1.2,2.58,2.76,2.58A4.52,4.52,0,0,0,49.7,111.34Z"/><path class="cls-4" d="M55.52,117.23l1.76-4-4.62-10.44v-.33h1l4.13,9.46h0l3.91-9.46h1v.33L56.5,117.58h-1Z"/><path class="cls-4" d="M66,104.48a5.79,5.79,0,0,1,4.4-2.2c2.2,0,4.44,1.31,4.44,5.73,0,4.58-2.58,6-5,6A5.36,5.36,0,0,1,66,112.65v4.93H64.89V102.42h.51c.49,0,.6.13.6,1.15Zm0,1.09v6a4.55,4.55,0,0,0,3.67,1.53c1.91,0,4-1,4-5s-1.87-4.93-3.49-4.93A5.6,5.6,0,0,0,66,105.57Z"/><path class="cls-4" d="M76.33,108.19c0-3.64,2.17-5.91,5.37-5.91s5.4,2.27,5.4,5.91-2.16,5.88-5.4,5.88S76.33,111.85,76.33,108.19Zm9.63,0c0-3.15-1.62-5-4.26-5s-4.24,1.89-4.24,5,1.62,5,4.24,5S86,111.36,86,108.19Z"/><path class="cls-4" d="M89.3,99.88a.76.76,0,0,1,.75-.75.76.76,0,0,1,.76.75.75.75,0,0,1-.76.76A.75.75,0,0,1,89.3,99.88Zm.17,14.1V102.42h.36c.66,0,.75.13.75,1.19V114Z"/><path class="cls-4" d="M95,104.26a8.25,8.25,0,0,1,5.08-2c1.62,0,3,.67,3,3.09V114h-1.11V105.5c0-1.84-1-2.28-2.31-2.28a8.1,8.1,0,0,0-4.66,2V114H93.85V102.42h.51c.49,0,.6.13.6,1.15Z"/><path class="cls-4" d="M104.79,102.42h1.54V99.2h1.11v3.22h3.08v.84h-3.08v8.08c0,1.4.64,1.82,2,1.82h1.33v.78a10.15,10.15,0,0,1-1.71.13c-1.78,0-2.73-.75-2.73-2.59v-8.22h-1.54Z"/><path class="cls-4" d="M96,73.12a32.41,32.41,0,1,0-9.27,9.1l6.65,6.65,10.66-7.71Zm-26.88.81A18.91,18.91,0,1,1,88.06,55,18.91,18.91,0,0,1,69.15,73.93Z"/><path class="cls-5" d="M118.78,33.73l-.62-.35.34-.1a.18.18,0,0,0,.13-.23.19.19,0,0,0-.23-.13l-.69.2-1-.57.77-.22a.29.29,0,0,0,.21-.37.3.3,0,0,0-.38-.21l-1.12.31a.4.4,0,0,0-.15.1l-1.37-.79.45-.12.81.22a.49.49,0,0,0,.62-.35.51.51,0,0,0-.06-.4.5.5,0,0,0,.06-.4A.49.49,0,0,0,116,30l-.81.23-.45-.13,1.37-.79a.25.25,0,0,0,.15.1l1.12.32a.31.31,0,0,0,.38-.21.31.31,0,0,0-.21-.38l-.77-.21,1-.57.69.19a.19.19,0,0,0,.1-.36l-.34-.09.62-.36a.27.27,0,0,0-.27-.47l-.62.36.09-.34a.19.19,0,0,0-.13-.23.19.19,0,0,0-.23.14l-.18.69-1,.57.2-.78a.3.3,0,0,0-.59-.15l-.29,1.14a.25.25,0,0,0,0,.17l-1.37.79.12-.44.6-.59a.52.52,0,0,0,0-.72.55.55,0,0,0-.38-.15.51.51,0,0,0-.32-.25.52.52,0,0,0-.62.37l-.2.81-.33.32V27.37a.37.37,0,0,0,.16-.07l.83-.82a.3.3,0,0,0-.42-.44l-.57.56V25.47l.51-.5a.19.19,0,1,0-.27-.27l-.24.24v-.71a.27.27,0,1,0-.54,0v.71l-.25-.24a.19.19,0,0,0-.27.27l.52.5V26.6l-.58-.56a.3.3,0,0,0-.42.44l.83.82a.36.36,0,0,0,.17.07V29l-.33-.32-.21-.81a.51.51,0,0,0-.62-.37.54.54,0,0,0-.32.25.53.53,0,0,0-.37.15.51.51,0,0,0,0,.72l.6.58.12.45-1.37-.79a.25.25,0,0,0,0-.17L110,27.5a.3.3,0,0,0-.37-.22.29.29,0,0,0-.21.37l.19.78-1-.57-.18-.69a.19.19,0,0,0-.23-.14.19.19,0,0,0-.13.23l.09.34-.62-.36a.27.27,0,0,0-.27.47l.62.36-.34.09a.19.19,0,0,0,.1.36l.69-.19,1,.57-.77.21a.31.31,0,0,0,.17.59l1.12-.32a.25.25,0,0,0,.15-.1l1.37.79-.45.13L110.1,30a.49.49,0,0,0-.62.35.5.5,0,0,0,.06.4.51.51,0,0,0-.06.4.49.49,0,0,0,.62.35l.81-.22.45.12-1.37.79a.4.4,0,0,0-.15-.1l-1.12-.31a.3.3,0,1,0-.17.58l.77.22-1,.57-.69-.2a.19.19,0,0,0-.23.13.18.18,0,0,0,.13.23l.34.1-.62.35a.28.28,0,0,0-.1.37.27.27,0,0,0,.37.1l.62-.35-.09.33a.19.19,0,0,0,.13.23.18.18,0,0,0,.23-.14l.18-.69,1-.56-.2.77a.31.31,0,0,0,.22.37.3.3,0,0,0,.37-.22l.29-1.13a.28.28,0,0,0,0-.18l1.37-.79-.12.45-.6.59a.5.5,0,0,0,0,.71.46.46,0,0,0,.37.15.51.51,0,0,0,.94-.11l.2-.81.34-.33v1.58a.3.3,0,0,0-.17.08l-.83.82a.31.31,0,0,0,0,.43.3.3,0,0,0,.43,0l.58-.56V36l-.52.5a.19.19,0,0,0,0,.26.18.18,0,0,0,.27,0l.25-.24v.71a.27.27,0,1,0,.54,0V36.5l.24.24a.18.18,0,0,0,.27,0,.19.19,0,0,0,0-.26l-.51-.5V34.84l.57.56a.3.3,0,0,0,.43,0,.31.31,0,0,0,0-.43l-.83-.82a.3.3,0,0,0-.16-.08V32.49l.33.33.2.81a.51.51,0,0,0,.62.36.5.5,0,0,0,.32-.25.48.48,0,0,0,.38-.15.5.5,0,0,0,0-.71l-.6-.59-.12-.45,1.37.79a.28.28,0,0,0,0,.18l.29,1.13a.3.3,0,0,0,.59-.15l-.2-.77,1,.56.18.69a.18.18,0,0,0,.23.14.19.19,0,0,0,.13-.23l-.09-.33.62.35a.27.27,0,0,0,.37-.1A.28.28,0,0,0,118.78,33.73ZM113,31.49a.77.77,0,1,1,.77-.77A.77.77,0,0,1,113,31.49Z"/><path class="cls-6" d="M32.32,31.86l-.62-.35.34-.1a.18.18,0,0,0,.13-.23.19.19,0,0,0-.23-.13l-.69.19-1-.56.77-.22a.3.3,0,1,0-.16-.58l-1.13.31a.4.4,0,0,0-.15.1l-1.37-.79.45-.12.81.22a.49.49,0,0,0,.62-.35.51.51,0,0,0-.06-.4.5.5,0,0,0,.06-.4.49.49,0,0,0-.62-.35l-.81.23-.45-.13,1.37-.79a.31.31,0,0,0,.15.1l1.13.32a.3.3,0,0,0,.37-.21.31.31,0,0,0-.21-.38L30.27,27l1-.57.69.19a.19.19,0,0,0,.1-.36l-.34-.09.62-.36a.27.27,0,0,0-.27-.47l-.62.36.09-.34a.19.19,0,0,0-.13-.23.19.19,0,0,0-.23.14L31,26l-1,.57.2-.78a.3.3,0,0,0-.59-.15l-.29,1.14a.25.25,0,0,0,0,.17L28,27.73l.12-.44.6-.59a.52.52,0,0,0,0-.72.55.55,0,0,0-.38-.15.51.51,0,0,0-.32-.25.5.5,0,0,0-.61.37l-.21.81-.33.32V25.5a.33.33,0,0,0,.16-.07l.83-.82a.3.3,0,1,0-.42-.44l-.57.56V23.6l.51-.5a.19.19,0,0,0-.27-.27l-.24.24v-.71a.27.27,0,0,0-.54,0v.71l-.25-.24a.19.19,0,1,0-.27.27l.52.5v1.13l-.58-.56a.3.3,0,0,0-.43,0,.31.31,0,0,0,0,.43l.83.82a.36.36,0,0,0,.17.07v1.58L26,26.76,25.76,26a.51.51,0,0,0-.62-.37.54.54,0,0,0-.32.25.53.53,0,0,0-.37.15.51.51,0,0,0,0,.72l.6.58.12.45-1.37-.79a.27.27,0,0,0,0-.18l-.29-1.13a.3.3,0,0,0-.37-.22.29.29,0,0,0-.21.37l.19.78-1-.57L22,25.3a.19.19,0,0,0-.23-.14.19.19,0,0,0-.13.23l.09.34-.62-.36a.27.27,0,0,0-.27.47l.62.36-.34.09a.19.19,0,1,0,.1.36l.69-.19,1,.57-.77.21a.31.31,0,0,0,.17.59l1.12-.32a.31.31,0,0,0,.15-.1l1.37.79-.45.13-.81-.23a.49.49,0,0,0-.62.35.5.5,0,0,0,.06.4.51.51,0,0,0-.06.4.49.49,0,0,0,.62.35l.81-.22.45.12-1.37.79a.4.4,0,0,0-.15-.1l-1.12-.31a.3.3,0,1,0-.17.58l.77.22-1,.56-.69-.19a.19.19,0,0,0-.23.13.18.18,0,0,0,.13.23l.34.1-.62.35a.28.28,0,0,0-.1.37.27.27,0,0,0,.37.1L21.7,32l-.09.34a.19.19,0,0,0,.13.23A.18.18,0,0,0,22,32.4l.18-.69,1-.56-.2.77a.31.31,0,0,0,.22.37.3.3,0,0,0,.37-.22l.29-1.13a.28.28,0,0,0,0-.18L25.17,30l-.12.45-.6.59a.5.5,0,0,0,0,.71.46.46,0,0,0,.37.15.51.51,0,0,0,.94-.11L26,31l.33-.33V32.2a.3.3,0,0,0-.17.08l-.83.82a.31.31,0,0,0,0,.43.3.3,0,0,0,.43,0L26.3,33v1.14l-.52.5a.19.19,0,0,0,0,.26.19.19,0,0,0,.27,0l.25-.24v.71a.27.27,0,0,0,.54,0v-.71l.24.24a.19.19,0,0,0,.27,0,.19.19,0,0,0,0-.26l-.51-.5V33l.57.56a.3.3,0,1,0,.42-.43L27,32.28a.27.27,0,0,0-.16-.08V30.62l.33.33.21.81a.5.5,0,0,0,.61.36.5.5,0,0,0,.32-.25.48.48,0,0,0,.38-.15.5.5,0,0,0,0-.71l-.6-.59L28,30l1.37.79a.28.28,0,0,0,0,.18l.29,1.13a.3.3,0,0,0,.59-.15l-.2-.77,1,.56.18.69a.19.19,0,1,0,.36-.09L31.43,32l.62.35a.27.27,0,0,0,.37-.1A.28.28,0,0,0,32.32,31.86Zm-5.75-2.24a.77.77,0,1,1,.77-.77A.77.77,0,0,1,26.57,29.62Z"/><path class="cls-6" d="M125.05,55l-.31-.18.17,0a.1.1,0,0,0,.06-.12.08.08,0,0,0-.11-.06l-.35.09-.49-.28.39-.11a.14.14,0,0,0,.1-.18.15.15,0,0,0-.19-.11l-.56.16a.12.12,0,0,0-.07.05l-.69-.4.23-.06.4.11a.25.25,0,0,0,.31-.17.68.68,0,0,1,0-.4.25.25,0,0,0-.31-.18l-.4.11-.23-.06.69-.39a.18.18,0,0,0,.07.05l.56.15a.15.15,0,0,0,.19-.1.15.15,0,0,0-.1-.19L124,52.6l.49-.28.35.1a.09.09,0,0,0,.11-.07.09.09,0,0,0-.06-.11l-.17-.05.31-.18a.14.14,0,0,0,0-.18.13.13,0,0,0-.19,0l-.31.18.05-.17a.11.11,0,0,0-.07-.12.09.09,0,0,0-.11.07l-.09.35-.49.28L124,52a.14.14,0,0,0-.1-.18.15.15,0,0,0-.19.11l-.15.56a.28.28,0,0,0,0,.09l-.68.4,0-.23.31-.29a.73.73,0,0,0-.35-.56.27.27,0,0,0-.31.18l-.1.41-.17.16v-.79a.18.18,0,0,0,.09,0l.41-.4a.17.17,0,0,0,0-.22.16.16,0,0,0-.22,0l-.29.28v-.57l.26-.25a.09.09,0,0,0-.13-.13l-.13.12v-.36a.13.13,0,0,0-.13-.13.13.13,0,0,0-.14.13v.36l-.12-.12a.09.09,0,0,0-.13.13l.25.25v.57l-.28-.28a.15.15,0,1,0-.21.22l.41.4a.2.2,0,0,0,.08,0v.79l-.16-.16-.11-.41a.25.25,0,0,0-.3-.18.24.24,0,0,0-.16.13.26.26,0,0,0-.19.07.25.25,0,0,0,0,.36l.3.29.06.23-.68-.4a.14.14,0,0,0,0-.09l-.14-.56a.16.16,0,0,0-.19-.11.15.15,0,0,0-.11.18l.1.39-.49-.28-.09-.35a.09.09,0,0,0-.11-.07.11.11,0,0,0-.07.12l0,.17-.3-.18a.13.13,0,1,0-.14.23l.31.18-.17.05a.08.08,0,0,0-.06.11.09.09,0,0,0,.11.07l.35-.1.49.28-.39.11a.15.15,0,0,0-.1.19.14.14,0,0,0,.18.1l.57-.15a.18.18,0,0,0,.07-.05l.69.39-.23.06-.4-.11a.24.24,0,0,0-.31.18.68.68,0,0,1,0,.4.24.24,0,0,0,.31.17l.4-.11.22.06-.68.4a.12.12,0,0,0-.07-.05L120,54a.14.14,0,0,0-.18.11.14.14,0,0,0,.1.18l.39.11-.49.28-.35-.09a.08.08,0,0,0-.11.06.09.09,0,0,0,.06.12l.17.05-.31.17a.14.14,0,0,0-.05.19.15.15,0,0,0,.19,0l.3-.18,0,.17a.09.09,0,0,0,.18,0L120,55l.49-.29-.1.39a.16.16,0,0,0,.3.08l.14-.57a.14.14,0,0,0,0-.09l.68-.39-.06.22-.3.29a.25.25,0,0,0,0,.36.24.24,0,0,0,.19.08.23.23,0,0,0,.16.12.24.24,0,0,0,.3-.18l.11-.41.16-.16v.8l-.08,0-.41.41a.15.15,0,1,0,.21.22l.28-.28v.56l-.25.25a.1.1,0,0,0,0,.14.1.1,0,0,0,.13,0l.12-.12v.35a.14.14,0,0,0,.14.14.13.13,0,0,0,.13-.14v-.35l.13.12a.1.1,0,0,0,.13,0,.1.1,0,0,0,0-.14l-.26-.25v-.56l.29.28a.16.16,0,0,0,.22,0,.17.17,0,0,0,0-.22l-.41-.41-.09,0v-.8l.17.16.1.41A.26.26,0,0,0,123,55a.24.24,0,0,0,.19-.08.26.26,0,0,0,0-.36l-.31-.29,0-.22.68.39a.28.28,0,0,0,0,.09l.15.57a.15.15,0,0,0,.19.11.15.15,0,0,0,.1-.19l-.09-.39.49.29.09.34a.09.09,0,1,0,.18,0l-.05-.17.31.18a.14.14,0,0,0,.14-.24Zm-2.88-1.12a.39.39,0,1,1,0-.77.39.39,0,0,1,0,.77Z"/><path class="cls-5" d="M21.67,55.24l-.31-.17.16,0a.1.1,0,0,0,.07-.12.09.09,0,0,0-.12-.06l-.34.09-.49-.28.38-.11a.14.14,0,0,0,.11-.18.16.16,0,0,0-.19-.11l-.56.16a.13.13,0,0,0-.07.05l-.69-.4.22-.06.41.11a.25.25,0,0,0,.31-.17.68.68,0,0,1,0-.4.25.25,0,0,0-.31-.18l-.41.12-.22-.07.69-.39a.13.13,0,0,0,.07,0l.56.16a.16.16,0,0,0,.19-.11.16.16,0,0,0-.11-.19l-.38-.1.49-.29.34.1a.1.1,0,0,0,.12-.07.09.09,0,0,0-.07-.11l-.16-.05.31-.18a.13.13,0,0,0,0-.18.12.12,0,0,0-.18,0l-.31.18.05-.17a.1.1,0,1,0-.19,0l-.08.35-.5.28.1-.39a.14.14,0,0,0-.11-.18.15.15,0,0,0-.18.11l-.15.57a.19.19,0,0,0,0,.08l-.68.4.05-.22.3-.3a.25.25,0,0,0,0-.36.26.26,0,0,0-.19-.07.25.25,0,0,0-.47.06l-.1.4-.17.16v-.79s.06,0,.08,0l.42-.4a.16.16,0,0,0,0-.22.15.15,0,0,0-.21,0l-.29.28v-.57l.26-.25a.09.09,0,0,0-.13-.13l-.13.12v-.36a.13.13,0,0,0-.13-.13.13.13,0,0,0-.14.13v.36l-.12-.12a.09.09,0,0,0-.13.13l.25.25v.57l-.28-.28a.16.16,0,1,0-.22.22l.42.4s.05,0,.08,0v.79l-.16-.16-.11-.4a.26.26,0,0,0-.31-.19.24.24,0,0,0-.15.13.26.26,0,0,0-.19.07.25.25,0,0,0,0,.36l.3.3.06.22-.69-.4a.08.08,0,0,0,0-.08l-.14-.57a.16.16,0,0,0-.19-.11.15.15,0,0,0-.11.18l.1.39-.49-.28L16.49,52a.09.09,0,0,0-.11-.07.11.11,0,0,0-.07.12l0,.17-.3-.18a.13.13,0,0,0-.19,0,.13.13,0,0,0,.05.18l.31.18-.17.05a.08.08,0,0,0-.06.11.09.09,0,0,0,.11.07l.35-.1.49.29-.39.1a.16.16,0,0,0,.08.3l.57-.16a.18.18,0,0,0,.07,0l.68.39-.22.07-.4-.12a.26.26,0,0,0-.32.18.68.68,0,0,1,0,.4.26.26,0,0,0,.32.17l.4-.11.22.06-.68.4a.18.18,0,0,0-.07-.05l-.57-.16a.15.15,0,0,0-.18.11.14.14,0,0,0,.1.18l.39.11-.49.28-.35-.09a.08.08,0,0,0-.11.06.09.09,0,0,0,.06.12l.17,0-.31.17a.13.13,0,0,0-.05.19.14.14,0,0,0,.19,0l.3-.18,0,.17a.09.09,0,0,0,.07.11.09.09,0,0,0,.11-.07l.09-.34.49-.28-.1.38a.16.16,0,1,0,.3.08l.14-.57a.14.14,0,0,0,0-.09l.69-.39-.06.22-.3.3a.24.24,0,0,0,0,.35.24.24,0,0,0,.19.08.2.2,0,0,0,.15.12.24.24,0,0,0,.31-.18l.11-.41.16-.16v.8a.11.11,0,0,0-.08,0l-.42.41a.16.16,0,1,0,.22.22l.28-.28v.57l-.25.25a.09.09,0,0,0,0,.13.09.09,0,0,0,.13,0l.12-.12V57a.14.14,0,0,0,.14.14.13.13,0,0,0,.13-.14v-.35l.13.12a.09.09,0,0,0,.13,0,.09.09,0,0,0,0-.13l-.26-.25V55.8l.29.28a.14.14,0,0,0,.21,0,.16.16,0,0,0,0-.22L19,55.45a.11.11,0,0,0-.08,0v-.8l.17.16.1.41a.25.25,0,0,0,.31.18.22.22,0,0,0,.16-.12.24.24,0,0,0,.19-.08.24.24,0,0,0,0-.35l-.3-.3-.05-.22.68.39a.28.28,0,0,0,0,.09l.15.57a.15.15,0,0,0,.18.11.15.15,0,0,0,.11-.19l-.1-.38.5.28.08.34a.1.1,0,0,0,.12.07.09.09,0,0,0,.07-.11l-.05-.17.31.18a.15.15,0,0,0,.19,0A.15.15,0,0,0,21.67,55.24Zm-2.88-1.12a.39.39,0,0,1-.39-.38.4.4,0,0,1,.39-.39.39.39,0,0,1,.38.39A.38.38,0,0,1,18.79,54.12Z"/><path class="cls-5" d="M52.15,21.26l-.3-.17L52,21a.09.09,0,0,0,.07-.11.1.1,0,0,0-.12-.07l-.34.1-.49-.29.38-.1a.16.16,0,0,0,.11-.19.16.16,0,0,0-.19-.11l-.56.16-.08.05-.68-.39.22-.07.41.12a.27.27,0,0,0,.31-.18.24.24,0,0,0,0-.2.24.24,0,0,0,0-.2.27.27,0,0,0-.31-.18l-.41.12-.22-.07.68-.39.08.05.56.16a.16.16,0,0,0,.19-.11.16.16,0,0,0-.11-.19l-.38-.1.49-.29.34.1a.11.11,0,0,0,.12-.07.09.09,0,0,0-.07-.11l-.16-.05.3-.18a.12.12,0,0,0,.05-.18A.13.13,0,0,0,52,18l-.31.18,0-.17a.08.08,0,0,0-.06-.11.09.09,0,0,0-.12.06l-.09.35-.49.28.1-.39a.15.15,0,1,0-.29-.07l-.15.57a.14.14,0,0,0,0,.09L50,19.2,50,19l.3-.3a.24.24,0,0,0,0-.35.25.25,0,0,0-.19-.08.25.25,0,0,0-.47.06l-.1.4-.17.17v-.8s.06,0,.08,0l.42-.41a.16.16,0,0,0,0-.22.14.14,0,0,0-.21,0l-.29.28v-.57l.26-.25a.1.1,0,0,0,0-.13.09.09,0,0,0-.13,0l-.13.12v-.35a.13.13,0,0,0-.13-.14.14.14,0,0,0-.14.14v.35L49,16.75a.1.1,0,0,0-.14,0,.09.09,0,0,0,0,.13l.25.25v.57l-.28-.28a.16.16,0,0,0-.22.22l.42.41s0,0,.08,0v.8L49,18.71l-.11-.4a.26.26,0,0,0-.31-.19.24.24,0,0,0-.15.13.24.24,0,0,0-.19.08.24.24,0,0,0,0,.35l.3.3.06.22-.69-.39a.14.14,0,0,0,0-.09l-.14-.57a.16.16,0,0,0-.19-.11.15.15,0,0,0-.11.19l.1.38-.49-.28L47,18a.08.08,0,0,0-.11-.06.09.09,0,0,0-.07.11l0,.17L46.53,18a.13.13,0,0,0-.18.05.12.12,0,0,0,0,.18l.31.18-.17.05a.09.09,0,0,0-.07.11.11.11,0,0,0,.12.07l.34-.1.5.29L47,19a.16.16,0,1,0,.08.3l.57-.16a.18.18,0,0,0,.07-.05l.68.39-.22.07-.4-.12a.27.27,0,0,0-.32.18.28.28,0,0,0,0,.2.28.28,0,0,0,0,.2.27.27,0,0,0,.32.18l.4-.12.22.07-.68.39a.18.18,0,0,0-.07-.05l-.57-.16a.16.16,0,1,0-.08.3l.39.1-.5.29-.34-.1a.11.11,0,0,0-.12.07.09.09,0,0,0,.07.11l.17.05-.31.17a.14.14,0,0,0,.13.24l.31-.18,0,.17a.09.09,0,0,0,.07.11.08.08,0,0,0,.11-.06l.09-.35.49-.28-.1.38a.15.15,0,0,0,.11.19.16.16,0,0,0,.19-.11l.14-.57a.14.14,0,0,0,0-.09l.69-.39-.06.22-.3.3a.24.24,0,0,0,0,.35.24.24,0,0,0,.19.08.24.24,0,0,0,.15.13.26.26,0,0,0,.31-.19l.11-.4.16-.17v.8s-.06,0-.08,0l-.42.41a.16.16,0,1,0,.22.22l.28-.28v.57l-.25.25a.09.09,0,0,0,0,.13.1.1,0,0,0,.14,0l.12-.12V23a.14.14,0,0,0,.14.14.13.13,0,0,0,.13-.14v-.35l.13.12a.09.09,0,0,0,.13,0,.1.1,0,0,0,0-.13l-.26-.25v-.57l.29.28a.14.14,0,0,0,.21,0,.16.16,0,0,0,0-.22l-.42-.41s-.05,0-.08,0v-.8l.17.17.1.4a.25.25,0,0,0,.47.06.25.25,0,0,0,.19-.08.24.24,0,0,0,0-.35l-.3-.3L50,20.32l.68.39a.14.14,0,0,0,0,.09l.15.57a.15.15,0,0,0,.18.11.15.15,0,0,0,.11-.19l-.1-.38.49.28.09.35a.09.09,0,0,0,.12.06.08.08,0,0,0,.06-.11l0-.17.31.18a.13.13,0,0,0,.18-.05A.13.13,0,0,0,52.15,21.26Zm-2.87-1.11a.39.39,0,1,1,.38-.39A.39.39,0,0,1,49.28,20.15Z"/><path class="cls-7" d="M88.89,21.26l-.31-.17.17-.05a.09.09,0,0,0,.06-.11.09.09,0,0,0-.11-.07l-.35.1-.49-.29.39-.1a.16.16,0,0,0,.1-.19.15.15,0,0,0-.19-.11l-.56.16a.18.18,0,0,0-.07.05l-.69-.39.23-.07.4.12a.27.27,0,0,0,.31-.18.24.24,0,0,0,0-.2.24.24,0,0,0,0-.2.27.27,0,0,0-.31-.18l-.4.12-.23-.07.69-.39a.18.18,0,0,0,.07.05l.56.16a.15.15,0,0,0,.19-.11.16.16,0,0,0-.1-.19l-.39-.1.49-.29.35.1a.09.09,0,0,0,.11-.07.09.09,0,0,0-.06-.11l-.17-.05.31-.18a.14.14,0,0,0,0-.18.14.14,0,0,0-.19-.05l-.31.18,0-.17a.09.09,0,0,0-.07-.11.08.08,0,0,0-.11.06l-.09.35-.49.28.09-.39a.14.14,0,0,0-.1-.18.15.15,0,0,0-.19.11l-.14.57a.14.14,0,0,0,0,.09l-.68.39.06-.22.3-.3a.24.24,0,0,0,0-.35.24.24,0,0,0-.19-.08.26.26,0,0,0-.16-.13.27.27,0,0,0-.31.19l-.1.4-.17.17v-.8a.32.32,0,0,0,.09,0l.41-.41a.17.17,0,0,0,0-.22.16.16,0,0,0-.22,0l-.29.28v-.57l.26-.25a.09.09,0,1,0-.13-.13l-.13.12v-.35a.13.13,0,0,0-.13-.14.14.14,0,0,0-.14.14v.35l-.12-.12a.09.09,0,1,0-.13.13l.25.25v.57l-.28-.28a.15.15,0,1,0-.21.22l.41.41.08,0v.8l-.16-.17-.11-.4a.25.25,0,0,0-.3-.19.73.73,0,0,1-.35.21.24.24,0,0,0,0,.35l.3.3.06.22-.68-.39a.14.14,0,0,0,0-.09l-.14-.57A.16.16,0,0,0,84.3,18a.15.15,0,0,0-.11.19l.1.38-.49-.28L83.71,18a.08.08,0,0,0-.11-.06.09.09,0,0,0-.07.11l0,.17-.3-.18a.14.14,0,0,0-.19.05.13.13,0,0,0,0,.18l.31.18-.17.05a.08.08,0,0,0-.06.11.09.09,0,0,0,.11.07l.35-.1.49.29-.39.1a.15.15,0,0,0-.1.19.15.15,0,0,0,.19.11l.56-.16a.18.18,0,0,0,.07-.05l.69.39L85,19.5l-.4-.12a.26.26,0,0,0-.31.18.24.24,0,0,0,0,.2.24.24,0,0,0,0,.2.26.26,0,0,0,.31.18L85,20l.23.07-.69.39a.18.18,0,0,0-.07-.05l-.57-.16a.16.16,0,0,0-.08.3l.39.1-.49.29-.35-.1a.09.09,0,0,0-.11.07.08.08,0,0,0,.06.11l.17.05-.31.17a.14.14,0,0,0,.14.24l.3-.18,0,.17a.09.09,0,0,0,.07.11.08.08,0,0,0,.11-.06l.09-.35.49-.28-.1.38a.15.15,0,0,0,.11.19.16.16,0,0,0,.19-.11l.14-.57a.14.14,0,0,0,0-.09l.68-.39-.06.22-.3.3a.24.24,0,0,0,0,.35.73.73,0,0,1,.35.21.25.25,0,0,0,.3-.19l.11-.4.16-.17v.8l-.08,0-.41.41a.15.15,0,1,0,.21.22l.28-.28v.57l-.25.25a.09.09,0,0,0,.13.13l.12-.12V23a.14.14,0,0,0,.14.14.13.13,0,0,0,.13-.14v-.35l.13.12a.09.09,0,1,0,.13-.13l-.26-.25v-.57l.29.28a.16.16,0,0,0,.22,0,.17.17,0,0,0,0-.22l-.41-.41a.32.32,0,0,0-.09,0v-.8l.17.17.1.4a.27.27,0,0,0,.31.19.26.26,0,0,0,.16-.13.24.24,0,0,0,.19-.08.24.24,0,0,0,0-.35l-.3-.3-.06-.22.68.39a.14.14,0,0,0,0,.09l.14.57a.16.16,0,0,0,.3-.08l-.1-.38.49.28.09.35a.08.08,0,0,0,.11.06.09.09,0,0,0,.07-.11l0-.17.31.18a.14.14,0,0,0,.19-.05A.15.15,0,0,0,88.89,21.26ZM86,20.15a.39.39,0,1,1,0-.78.39.39,0,0,1,0,.78Z"/><path class="cls-7" d="M24.61,83.67l-.31-.18.17,0a.11.11,0,0,0,.07-.12.09.09,0,0,0-.12-.06l-.34.09-.5-.28L24,83a.16.16,0,0,0,.11-.19.15.15,0,0,0-.19-.1l-.57.15a.13.13,0,0,0-.07.06l-.68-.4.22-.06.4.11a.26.26,0,0,0,.32-.18.28.28,0,0,0,0-.2.25.25,0,0,0-.29-.37l-.4.11-.22-.06.68-.4a.13.13,0,0,0,.07.06l.57.15a.15.15,0,1,0,.08-.29l-.39-.11.5-.28.34.09a.09.09,0,0,0,.12-.06.11.11,0,0,0-.07-.12l-.17,0,.31-.18a.13.13,0,0,0,.05-.19.13.13,0,0,0-.18,0l-.31.17,0-.17a.09.09,0,0,0-.18,0l-.09.34-.49.29.1-.39a.16.16,0,0,0-.3-.08l-.14.57a.14.14,0,0,0,0,.09l-.69.4.06-.23.3-.29a.25.25,0,0,0,0-.36.27.27,0,0,0-.19-.08.23.23,0,0,0-.15-.12.25.25,0,0,0-.31.18l-.11.41-.16.16v-.8a.11.11,0,0,0,.08,0l.42-.41a.14.14,0,0,0,0-.21.16.16,0,0,0-.22,0l-.28.28v-.57l.25-.25a.09.09,0,0,0,0-.13.09.09,0,0,0-.13,0l-.12.13v-.36a.14.14,0,0,0-.14-.14.14.14,0,0,0-.13.14v.36l-.13-.13a.09.09,0,0,0-.13,0,.1.1,0,0,0,0,.13l.26.25v.57l-.29-.28a.15.15,0,1,0-.21.21l.42.41a.11.11,0,0,0,.08,0v.8l-.17-.16-.1-.41a.25.25,0,0,0-.31-.18.25.25,0,0,0-.16.12.27.27,0,0,0-.19.08.26.26,0,0,0,0,.36l.3.29.05.23-.68-.4a.14.14,0,0,0,0-.09l-.15-.57a.14.14,0,0,0-.18-.1.15.15,0,0,0-.11.18L20,81l-.49-.29-.09-.34a.11.11,0,0,0-.12-.07.08.08,0,0,0-.06.11l0,.17L19,80.43a.13.13,0,0,0-.18,0,.13.13,0,0,0,.05.19l.3.18-.16,0a.11.11,0,0,0-.07.12.09.09,0,0,0,.12.06l.34-.09.49.28-.38.11a.16.16,0,0,0-.11.19.15.15,0,0,0,.19.1l.56-.15a.16.16,0,0,0,.08-.06l.68.4-.22.06-.41-.11A.25.25,0,0,0,20,82a.22.22,0,0,0,0,.2.24.24,0,0,0,0,.2.25.25,0,0,0,.31.18l.41-.11.22.06-.68.4a.16.16,0,0,0-.08-.06l-.56-.15a.15.15,0,0,0-.19.1.16.16,0,0,0,.11.19l.38.11-.49.28-.34-.09a.09.09,0,0,0-.12.06.11.11,0,0,0,.07.12l.16,0-.3.18a.13.13,0,0,0-.05.18.12.12,0,0,0,.18.05l.31-.17-.05.16a.1.1,0,0,0,.07.12.11.11,0,0,0,.12-.07l.09-.34.49-.29-.1.39a.15.15,0,0,0,.11.18.14.14,0,0,0,.18-.1l.15-.57a.28.28,0,0,0,0-.09l.68-.4L21,83l-.3.29a.26.26,0,0,0,0,.36.23.23,0,0,0,.19.07.26.26,0,0,0,.16.13.25.25,0,0,0,.31-.18l.1-.41.17-.16v.8a.11.11,0,0,0-.08,0l-.42.41a.15.15,0,1,0,.21.21l.29-.28v.57l-.26.25a.1.1,0,0,0,0,.13.09.09,0,0,0,.13,0l.13-.13v.36a.14.14,0,0,0,.13.14.14.14,0,0,0,.14-.14v-.36l.12.13a.09.09,0,0,0,.13,0,.09.09,0,0,0,0-.13l-.25-.25v-.57l.28.28a.16.16,0,0,0,.22,0,.15.15,0,0,0,0-.21L22,83.88a.11.11,0,0,0-.08,0v-.8l.16.16.11.41a.25.25,0,0,0,.31.18.24.24,0,0,0,.15-.13.23.23,0,0,0,.19-.07.25.25,0,0,0,0-.36l-.3-.29-.06-.23.69.4a.14.14,0,0,0,0,.09l.14.57a.16.16,0,0,0,.3-.08l-.1-.39.49.29.09.34a.09.09,0,0,0,.11.07.1.1,0,0,0,.07-.12l0-.16.31.17a.13.13,0,0,0,.13-.23Zm-2.88-1.12a.39.39,0,1,1,.39-.39A.38.38,0,0,1,21.73,82.55Z"/><path class="cls-7" d="M124.66,84.06l-.31-.18.17,0a.09.09,0,0,0,.07-.11.11.11,0,0,0-.12-.07l-.34.1-.5-.29.39-.1a.16.16,0,1,0-.08-.3l-.57.16a.18.18,0,0,0-.07,0l-.68-.39.22-.07.4.12a.26.26,0,0,0,.32-.18.68.68,0,0,1,0-.4.27.27,0,0,0-.32-.18l-.4.12-.22-.06.68-.4a.18.18,0,0,0,.07,0l.57.16a.16.16,0,0,0,.19-.11.15.15,0,0,0-.11-.18l-.39-.11.5-.29.34.1a.11.11,0,0,0,.12-.07.09.09,0,0,0-.07-.11l-.17,0,.31-.17a.14.14,0,0,0-.13-.24l-.31.18,0-.17a.09.09,0,0,0-.07-.11.08.08,0,0,0-.11.06l-.09.35-.49.28.1-.38a.15.15,0,0,0-.11-.19.16.16,0,0,0-.19.11l-.14.57a.14.14,0,0,0,0,.09l-.69.39.06-.22.3-.3a.24.24,0,0,0,0-.35.24.24,0,0,0-.19-.08.24.24,0,0,0-.15-.13.26.26,0,0,0-.31.19l-.11.4-.16.17v-.8s.06,0,.08,0l.42-.41a.16.16,0,1,0-.22-.22l-.28.28v-.57l.25-.25a.09.09,0,0,0-.13-.13l-.12.12v-.35a.14.14,0,0,0-.14-.14.13.13,0,0,0-.13.14v.35l-.13-.12a.09.09,0,0,0-.13,0,.1.1,0,0,0,0,.13l.26.25v.57l-.29-.28a.14.14,0,0,0-.21,0,.16.16,0,0,0,0,.22l.42.41s.05,0,.08,0v.8l-.17-.17-.1-.4a.25.25,0,0,0-.47-.06.24.24,0,0,0-.19.08.25.25,0,0,0,0,.35l.3.3,0,.22-.68-.39a.14.14,0,0,0,0-.09l-.15-.57a.15.15,0,0,0-.18-.11A.15.15,0,0,0,120,81l.1.38-.49-.28-.09-.35a.09.09,0,0,0-.12-.06.08.08,0,0,0-.06.11l0,.17-.31-.18a.13.13,0,0,0-.18,0,.13.13,0,0,0,0,.19l.3.17-.16,0a.09.09,0,0,0-.07.11.11.11,0,0,0,.12.07l.34-.1.49.29-.38.11a.15.15,0,0,0-.11.18.16.16,0,0,0,.19.11l.56-.16.08,0,.68.4-.22.06-.41-.12a.27.27,0,0,0-.31.18.68.68,0,0,1,0,.4.26.26,0,0,0,.31.18l.41-.12.22.07-.68.39-.08,0-.56-.16a.16.16,0,0,0-.19.11.16.16,0,0,0,.11.19l.38.1-.49.29-.34-.1a.11.11,0,0,0-.12.07.09.09,0,0,0,.07.11l.16,0-.3.18a.12.12,0,0,0,0,.18.12.12,0,0,0,.18.05l.31-.18,0,.17a.1.1,0,1,0,.19,0l.09-.35.49-.28-.1.38a.15.15,0,0,0,.11.19.15.15,0,0,0,.18-.11l.15-.57a.19.19,0,0,0,0-.08l.68-.4,0,.22-.3.3a.69.69,0,0,0,.34.56.26.26,0,0,0,.31-.19l.1-.4.17-.16v.79s-.06,0-.08,0l-.42.41a.16.16,0,0,0,0,.22.14.14,0,0,0,.21,0l.29-.28v.57l-.26.25a.1.1,0,0,0,0,.13.09.09,0,0,0,.13,0l.13-.12v.36a.13.13,0,0,0,.13.13.13.13,0,0,0,.14-.13v-.36l.12.12a.09.09,0,0,0,.13-.13l-.25-.25v-.57l.28.28a.16.16,0,0,0,.22-.22l-.42-.41s0,0-.08,0v-.79l.16.16.11.4a.26.26,0,0,0,.31.19.24.24,0,0,0,.15-.13.26.26,0,0,0,.19-.07.25.25,0,0,0,0-.36l-.3-.3-.06-.22.69.4a.11.11,0,0,0,0,.08l.14.57a.16.16,0,0,0,.19.11.15.15,0,0,0,.11-.19l-.1-.38L124,84l.09.35a.09.09,0,0,0,.11.07.11.11,0,0,0,.07-.12l0-.17.31.18a.13.13,0,0,0,.18-.05A.12.12,0,0,0,124.66,84.06Zm-2.88-1.12a.39.39,0,0,1-.38-.39.39.39,0,0,1,.77,0A.39.39,0,0,1,121.78,82.94Z"/></svg>